# xmcd
#
# Track frame offsets:
#	150
#	18123
#	39373
#	55273
#	76613
#	92513
#	111345
#	131725
#	147950
#	165038
#	184763
#	205463
#	224663
#	242975
#	260430
#	278238
#	300975
#
# Disc length: 4280 seconds
#
# Revision: 0
# Processed by: cddbd v1.5.2PL0 Copyright (c) Steve Scherf et al.
# Submitted via: EasyCDDAExtractor 16.1.0.1
#
DISCID=e510b611
DTITLE=陈慧娴 - 陈慧娴精选金碟
DYEAR=1900
DGENRE=
TTITLE0=飘雪
TTITLE1=归来吧
TTITLE2=夜半轻私语
TTITLE3=月亮
TTITLE4=我的梦你的梦
TTITLE5=红茶馆
TTITLE6=夜机
TTITLE7=Joe Le TAXI
TTITLE8=痴情意外
TTITLE9=Dancing Boy
TTITLE10=与泪抱拥
TTITLE11=玻璃窗的爱
TTITLE12=逝去的诺言
TTITLE13=傻女
TTITLE14=人生何处不相逢
TTITLE15=千千阙歌
TTITLE16=秋色
EXTD=
EXTT0=
EXTT1=
EXTT2=
EXTT3=
EXTT4=
EXTT5=
EXTT6=
EXTT7=
EXTT8=
EXTT9=
EXTT10=
EXTT11=
EXTT12=
EXTT13=
EXTT14=
EXTT15=
EXTT16=
PLAYORDER=
